<svg width="133" height="43" viewBox="0 0 133 43" fill="none" xmlns="http://www.w3.org/2000/svg">
<path d="M25.8586 21.54C25.5319 21.54 25.2752 21.4933 25.0886 21.4C24.6686 21.2133 24.4586 21.12 24.4586 21.12C24.4586 21.0733 24.6686 20.91 25.0886 20.63C25.4152 20.4433 25.7886 20.3733 26.2086 20.42C26.6752 20.4667 27.0019 20.4667 27.1886 20.42C28.3086 20.1867 29.6619 19.86 31.2486 19.44C32.8352 19.02 34.6786 18.18 36.7786 16.92L39.5086 15.31C39.7419 15.17 39.9052 15.1933 39.9986 15.38C39.9052 15.4267 39.8586 15.5433 39.8586 15.73C40.1852 15.73 40.3719 15.6133 40.4186 15.38C40.5119 15.1 40.6052 14.8433 40.6986 14.61H40.7686L42.3086 13.63C42.5419 13.5833 42.7519 13.6067 42.9386 13.7C43.1719 13.7933 43.3819 13.77 43.5686 13.63C43.4752 13.4433 43.3819 13.3267 43.2886 13.28C43.1952 13.1867 43.2419 13.07 43.4286 12.93L43.7086 12.72C44.0819 12.4867 44.4086 12.3233 44.6886 12.23C45.0152 12.09 45.2486 11.8333 45.3886 11.46C46.3219 10.62 47.1152 9.78 47.7686 8.94C48.4219 8.1 48.7486 7.30667 48.7486 6.56C48.7486 5.76667 48.3052 5.09 47.4186 4.53C46.5786 3.92333 45.0619 3.48 42.8686 3.2L42.3086 3.13C41.9819 3.08333 41.6786 3.03666 41.3986 2.99C41.1186 2.94333 40.8386 2.85 40.5586 2.71C40.6052 2.89667 40.5119 2.99 40.2786 2.99C39.6252 2.94333 38.9719 2.92 38.3186 2.92C37.6652 2.87333 37.0352 2.85 36.4286 2.85C35.4019 2.85 34.4452 2.87333 33.5586 2.92C32.7186 2.96666 32.1119 3.01333 31.7386 3.06L29.4286 3.34C29.1486 3.24666 28.8686 3.29333 28.5886 3.48H28.5186C28.1919 3.48 27.8652 3.52667 27.5386 3.62C27.2119 3.66666 26.8619 3.73666 26.4886 3.83C26.3019 3.87667 26.0919 3.92333 25.8586 3.97C25.6252 3.97 25.3919 4.01667 25.1586 4.11L23.7586 4.39C23.4319 4.62333 23.0119 4.74 22.4986 4.74H22.4286L21.0986 5.09H21.0286C20.8419 5.09 20.6786 4.99667 20.5386 4.81C20.3986 4.57667 20.3052 4.36667 20.2586 4.18C20.2119 4.46 20.1419 4.76333 20.0486 5.09C19.9552 5.41667 19.7919 5.58 19.5586 5.58L17.5986 6.21C17.4119 6.25667 17.2019 6.28 16.9686 6.28C16.7352 6.28 16.5019 6.28 16.2686 6.28C16.0352 6.28 15.8486 6.30333 15.7086 6.35C15.5686 6.39667 15.4752 6.51333 15.4286 6.7C15.4286 6.84 15.3586 6.95667 15.2186 7.05C15.0319 7.23667 14.7986 7.37667 14.5186 7.47C14.2386 7.51667 13.9819 7.58667 13.7486 7.68H13.6786C13.5852 7.68 13.4452 7.63333 13.2586 7.54C13.1186 7.44667 13.0019 7.42333 12.9086 7.47C12.8619 7.51667 12.8152 7.63333 12.7686 7.82C12.7219 8.00667 12.6519 8.12333 12.5586 8.17V8.24C12.2786 8.33333 11.9752 8.45 11.6486 8.59C11.3219 8.73 11.0186 8.87 10.7386 9.01C10.4586 9.15 10.1319 9.31333 9.75856 9.5C9.43189 9.64 9.15189 9.73333 8.91856 9.78C8.82522 9.78 8.77856 9.68667 8.77856 9.5C8.82522 9.31333 8.80189 9.26667 8.70856 9.36C8.42856 9.5 8.14856 9.75667 7.86856 10.13C7.58856 10.5033 7.33189 10.76 7.09855 10.9C6.86522 11.0867 6.60856 11.18 6.32855 11.18C6.09522 11.18 5.86189 11.2733 5.62856 11.46C5.48856 11.6 5.34856 11.8333 5.20856 12.16C5.11522 12.44 4.99855 12.65 4.85856 12.79C4.48522 13.1633 4.11189 13.6067 3.73855 14.12C3.69189 14.2133 3.62189 14.3067 3.52855 14.4C3.43522 14.4933 3.38855 14.61 3.38855 14.75H3.31856C3.03855 15.31 2.89855 15.8467 2.89855 16.36C2.89855 17.3867 3.27189 18.1333 4.01855 18.6C4.81189 19.0667 5.69856 19.4167 6.67856 19.65C6.86522 19.6967 7.02856 19.7667 7.16856 19.86C7.35522 19.9533 7.54189 19.9767 7.72856 19.93C7.91522 19.8367 8.07855 19.79 8.21856 19.79C8.45189 19.79 8.63855 19.8833 8.77856 20.07L9.82856 20.28C10.3886 20.42 10.6686 20.56 10.6686 20.7C10.6686 20.7933 10.5286 20.8867 10.2486 20.98C10.0152 21.0267 9.78189 21.05 9.54856 21.05C8.70856 21.05 7.68189 20.8867 6.46856 20.56C5.25522 20.1867 4.15856 19.65 3.17855 18.95C2.19855 18.25 1.63855 17.34 1.49855 16.22C1.49855 16.1733 1.42855 16.0567 1.28855 15.87C1.19522 15.6833 1.12522 15.52 1.07855 15.38C0.938555 14.96 0.868555 14.54 0.868555 14.12C0.868555 13.3267 1.03189 12.58 1.35855 11.88C1.73189 11.18 2.22189 10.5267 2.82855 9.92C3.06189 9.68667 3.27189 9.52333 3.45855 9.43C3.69189 9.33667 3.94855 9.19667 4.22855 9.01C4.50856 8.82333 4.64856 8.66 4.64856 8.52C4.64856 8.38 4.78856 8.21667 5.06855 8.03C5.44189 7.79667 5.95522 7.51667 6.60855 7.19C7.30855 6.86333 7.84522 6.60667 8.21856 6.42C8.49855 6.42 8.75522 6.30333 8.98856 6.07C9.92189 5.65 10.9019 5.27667 11.9286 4.95C12.9552 4.57667 13.9819 4.22667 15.0086 3.9C15.1952 3.85333 15.3586 3.80667 15.4986 3.76C15.6386 3.71333 15.7786 3.69 15.9186 3.69C16.1052 3.69 16.2919 3.76 16.4786 3.9C16.4786 3.80667 16.4552 3.73667 16.4086 3.69C16.4086 3.59666 16.4552 3.52666 16.5486 3.48C17.7152 3.10666 18.8586 2.75666 19.9786 2.43C21.1452 2.05666 22.2886 1.87 23.4086 1.87H23.4786C23.5719 1.87 23.6652 1.84667 23.7586 1.8C23.8986 1.75333 24.0152 1.73 24.1086 1.73H24.1786L24.6686 1.66C24.9486 1.8 25.2286 1.75333 25.5086 1.52C26.7686 1.28667 27.9352 1.12333 29.0086 1.03C30.0819 0.889998 30.9919 0.819997 31.7386 0.819997H32.0186C32.2519 0.819997 32.4386 0.796664 32.5786 0.749998H33.2786C33.4186 0.703332 33.5586 0.703332 33.6986 0.749998C33.8852 0.749998 34.0252 0.749998 34.1186 0.749998H34.1886C34.7486 0.749998 35.3319 0.773331 35.9386 0.819997C36.5919 0.819997 37.2452 0.819997 37.8986 0.819997H37.9686C38.1552 0.819997 38.2952 0.889998 38.3886 1.03C38.5286 1.12333 38.6919 1.07667 38.8786 0.889999C40.1386 0.936665 41.3986 1.07666 42.6586 1.31C43.5919 1.45 44.6652 1.73 45.8786 2.15C47.1386 2.57 48.2352 3.22333 49.1686 4.11C50.1019 4.95 50.5686 6.14 50.5686 7.68C50.5686 8.42667 50.4752 9.10333 50.2886 9.71C50.1486 10.27 49.8686 10.7833 49.4486 11.25C49.0752 11.7167 48.6319 12.1833 48.1186 12.65C47.9786 12.79 47.8386 12.9533 47.6986 13.14C47.5586 13.3267 47.3952 13.49 47.2086 13.63C47.1619 13.6767 47.0686 13.7233 46.9286 13.77C46.8352 13.77 46.7419 13.7933 46.6486 13.84C46.5552 13.9333 46.4619 14.0033 46.3686 14.05C46.2752 14.0967 46.1586 14.1667 46.0186 14.26C44.4786 15.2867 43.1486 16.0567 42.0286 16.57C40.9552 17.0367 39.5319 17.5733 37.7586 18.18C37.1986 18.3667 36.8019 18.4833 36.5686 18.53C36.3352 18.53 36.1486 18.5767 36.0086 18.67C34.8419 18.9967 33.5119 19.4633 32.0186 20.07C30.5252 20.6767 29.2419 21.0733 28.1686 21.26C28.0752 21.3067 27.7719 21.3767 27.2586 21.47C26.7919 21.5167 26.3252 21.54 25.8586 21.54ZM46.7886 42.47C46.7419 42.47 46.5786 42.47 46.2986 42.47C46.0186 42.47 45.8552 42.4467 45.8086 42.4C45.6219 42.3067 45.5519 42.1667 45.5986 41.98C45.6452 41.7933 45.5752 41.7 45.3886 41.7C45.2019 41.7 45.0852 41.77 45.0386 41.91C44.9919 42.0967 44.8519 42.19 44.6186 42.19H44.5486C44.3152 42.19 44.1052 42.0733 43.9186 41.84C43.7786 41.6067 43.6152 41.5367 43.4286 41.63C43.1486 41.77 42.9152 41.84 42.7286 41.84C42.4019 41.84 42.1452 41.7233 41.9586 41.49C41.7719 41.2567 41.5152 41.0467 41.1886 40.86C41.1419 40.86 41.0486 40.8833 40.9086 40.93C40.8152 40.9767 40.7219 40.9767 40.6286 40.93C40.5819 40.8833 40.2086 40.6733 39.5086 40.3C38.8086 39.9733 38.1086 39.6233 37.4086 39.25C36.7086 38.8767 36.2886 38.6433 36.1486 38.55C36.0086 38.2233 35.8686 38.0367 35.7286 37.99C35.6352 37.9433 35.4252 37.92 35.0986 37.92C34.9119 37.78 34.6552 37.6167 34.3286 37.43C34.0486 37.29 33.8619 37.1033 33.7686 36.87C33.1619 36.6367 32.6252 36.3567 32.1586 36.03C31.6919 35.7033 31.2019 35.33 30.6886 34.91C30.5952 34.8167 30.4786 34.7467 30.3386 34.7C30.1986 34.6533 30.0819 34.5833 29.9886 34.49L28.0986 33.09C28.0052 32.81 27.6552 32.5067 27.0486 32.18C26.4419 31.8067 26.0219 31.4567 25.7886 31.13C25.7419 31.0833 25.7186 31.0367 25.7186 30.99C25.7186 30.7567 25.6019 30.64 25.3686 30.64C25.2286 30.64 25.0886 30.64 24.9486 30.64C24.8086 30.64 24.7386 30.5467 24.7386 30.36C24.5986 30.0333 24.2486 29.66 23.6886 29.24C23.1286 28.7733 22.6152 28.3067 22.1486 27.84C21.6819 27.3733 21.5186 26.9767 21.6586 26.65C21.4719 26.6033 21.2852 26.58 21.0986 26.58C20.9119 26.58 20.7719 26.51 20.6786 26.37C20.4919 25.9967 20.2586 25.6933 19.9786 25.46C19.8386 25.3667 19.6986 25.2267 19.5586 25.04L19.2086 25.74C19.0219 26.02 18.8352 26.3467 18.6486 26.72C18.4619 27.0933 18.2519 27.49 18.0186 27.91L17.3886 29.17C17.3419 29.31 17.2719 29.38 17.1786 29.38C17.1319 29.3333 17.0619 29.31 16.9686 29.31C17.0619 29.4967 17.1086 29.66 17.1086 29.8C17.1086 30.1733 16.8986 30.57 16.4786 30.99C15.8719 32.39 15.3119 33.72 14.7986 34.98C14.2852 36.24 13.8886 37.4067 13.6086 38.48C13.5152 38.8533 13.3752 39.04 13.1886 39.04C12.8619 39.04 12.6986 38.69 12.6986 37.99C12.6986 37.3367 12.9552 36.31 13.4686 34.91L13.3986 34.98C13.3519 34.98 13.1886 35.0267 12.9086 35.12C12.6286 35.2133 12.4419 35.2367 12.3486 35.19C11.7419 35.19 11.4386 34.98 11.4386 34.56C11.4386 33.44 11.6719 32.2733 12.1386 31.06L13.9586 26.3C14.0519 26.16 14.0986 26.02 14.0986 25.88C14.1452 25.74 14.1919 25.6 14.2386 25.46L14.3086 25.39V25.32L14.5886 23.85C14.6819 23.43 14.7286 23.0567 14.7286 22.73C14.7752 22.4033 14.7986 22.0067 14.7986 21.54C14.7986 21.4 14.8686 21.3067 15.0086 21.26C15.0086 20.9333 15.0319 20.63 15.0786 20.35C15.1252 20.0233 15.1486 19.6967 15.1486 19.37V19.02C15.1019 18.9733 15.0786 18.88 15.0786 18.74C15.0786 18.6467 15.0552 18.5533 15.0086 18.46C15.0086 18.3667 15.0086 18.2733 15.0086 18.18C15.0086 18.1333 15.0086 18.11 15.0086 18.11C15.0552 18.0633 15.0786 18.0167 15.0786 17.97C15.1719 17.41 15.3352 16.8967 15.5686 16.43C15.8486 15.9633 16.1519 15.8467 16.4786 16.08C16.5719 16.1267 16.7352 16.4067 16.9686 16.92C17.2486 17.4333 17.4819 17.8067 17.6686 18.04C17.8552 18.5067 18.0886 18.95 18.3686 19.37C18.6486 19.7433 18.8819 20.1633 19.0686 20.63C19.2086 20.8633 19.2786 21.05 19.2786 21.19C19.2786 21.2833 19.4419 21.3767 19.7686 21.47C21.1219 19.0433 22.4752 16.7333 23.8286 14.54C25.2286 12.3 26.5352 10.5733 27.7486 9.36L27.9586 9.22L28.1686 8.87C28.1686 8.87 28.2152 8.84667 28.3086 8.8C28.4019 8.75333 28.4719 8.77666 28.5186 8.87C28.5186 8.91667 28.4719 9.01 28.3786 9.15C28.3319 9.29 28.3086 9.38333 28.3086 9.43C28.4486 9.66333 28.6119 9.68667 28.7986 9.5C28.8452 9.40666 28.8452 9.19666 28.7986 8.87C28.7519 8.54333 28.7519 8.38 28.7986 8.38C28.8919 8.33333 28.9386 8.33333 28.9386 8.38C28.9852 8.42667 29.0319 8.45 29.0786 8.45C29.1719 8.45 29.2186 8.38 29.2186 8.24C29.2186 8.1 29.2419 8.00667 29.2886 7.96C29.8019 7.77333 30.2686 7.68 30.6886 7.68C30.9219 7.68 31.2486 7.79667 31.6686 8.03C32.1352 8.26333 32.3686 8.59 32.3686 9.01C32.3686 9.24333 32.2519 9.52333 32.0186 9.85C31.9719 9.89667 31.9252 9.99 31.8786 10.13C31.8319 10.2233 31.7619 10.3167 31.6686 10.41C31.6219 10.4567 31.5752 10.48 31.5286 10.48C31.5286 10.4333 31.4819 10.4333 31.3886 10.48C31.3419 10.5267 31.2719 10.55 31.1786 10.55C31.1319 10.5033 31.0619 10.48 30.9686 10.48C30.8752 10.48 30.8519 10.55 30.8986 10.69C30.9919 10.83 31.0152 10.9233 30.9686 10.97C30.9219 11.0167 30.8752 11.0167 30.8286 10.97C30.7819 10.9233 30.7119 10.9467 30.6186 11.04C30.5719 11.0867 30.5952 11.1333 30.6886 11.18C30.8286 11.18 30.8519 11.2267 30.7586 11.32C30.4786 11.6 30.1286 11.9033 29.7086 12.23C29.3352 12.51 28.9619 12.79 28.5886 13.07C28.5419 13.1167 28.4952 13.1167 28.4486 13.07C28.4019 12.9767 28.3552 12.9533 28.3086 13L27.8186 13.7C27.3519 14.1667 26.8852 14.6567 26.4186 15.17C25.9519 15.6833 25.4619 16.2667 24.9486 16.92C24.8086 17.2 24.6452 17.4567 24.4586 17.69C24.2719 17.9233 24.0152 18.0167 23.6886 17.97C23.6886 18.0167 23.7352 18.0867 23.8286 18.18C23.9219 18.2267 23.9219 18.32 23.8286 18.46C22.8019 19.86 21.8452 21.3067 20.9586 22.8L22.4286 24.62C22.5686 24.8067 22.6386 25.0167 22.6386 25.25C22.6386 25.4367 22.6852 25.5533 22.7786 25.6C22.8719 25.6 22.9419 25.5767 22.9886 25.53C23.0819 25.4833 23.1519 25.46 23.1986 25.46C23.3386 25.46 23.4552 25.5767 23.5486 25.81C23.6886 25.9967 23.8286 26.16 23.9686 26.3C24.1552 26.4867 24.3419 26.6733 24.5286 26.86C24.7619 27.0467 24.9952 27.2567 25.2286 27.49V27.56C25.4152 27.7 25.7186 27.9567 26.1386 28.33C26.5586 28.7033 26.9552 29.0767 27.3286 29.45C27.7019 29.7767 27.9119 30.0333 27.9586 30.22C28.0519 30.4067 28.1919 30.5233 28.3786 30.57C28.5652 30.6167 28.7286 30.6867 28.8686 30.78C29.2419 31.06 29.6152 31.34 29.9886 31.62C30.4086 31.9 30.8052 32.2033 31.1786 32.53C31.3186 32.6233 31.3652 32.7167 31.3186 32.81C31.3186 32.9033 31.3419 32.9967 31.3886 33.09C31.4819 33.1367 31.6452 33.2067 31.8786 33.3C32.1586 33.3467 32.3686 33.4167 32.5086 33.51C33.5819 34.21 34.6552 34.8867 35.7286 35.54C36.8019 36.24 37.9219 36.8933 39.0886 37.5C40.3019 38.1067 41.5386 38.6433 42.7986 39.11C44.0586 39.5767 45.3886 39.81 46.7886 39.81C47.9086 39.81 48.9819 39.6 50.0086 39.18C51.0819 38.76 51.6186 37.99 51.6186 36.87C51.6186 36.4967 51.5486 36.1 51.4086 35.68C51.3619 35.4467 51.2686 35.19 51.1286 34.91C51.0352 34.63 50.8719 34.42 50.6386 34.28C50.4986 34 50.2419 33.8133 49.8686 33.72C49.6352 33.4867 49.4252 33.2533 49.2386 33.02C49.0519 32.74 48.7719 32.6233 48.3986 32.67C48.2586 32.53 48.1886 32.39 48.1886 32.25C48.1886 32.0633 48.2586 31.9233 48.3986 31.83C48.5852 31.69 48.7952 31.6667 49.0286 31.76C49.3552 31.9467 49.6119 32.2033 49.7986 32.53C50.0319 32.81 50.3352 32.9733 50.7086 33.02L51.0586 33.37C51.1986 33.6033 51.3386 33.79 51.4786 33.93C51.6652 34.07 51.8286 34.2567 51.9686 34.49C52.1086 34.6767 52.2486 34.9333 52.3886 35.26C52.5752 35.6333 52.6919 35.9367 52.7386 36.17C52.8319 36.3567 52.8552 36.5433 52.8086 36.73C52.8086 36.9167 52.8786 37.1267 53.0186 37.36C53.1119 38.8067 52.6452 39.9733 51.6186 40.86C50.5919 41.7933 49.4019 42.3067 48.0486 42.4C47.9086 42.3067 47.7686 42.2367 47.6286 42.19C47.5352 42.1433 47.4419 42.12 47.3486 42.12C47.2086 42.12 47.0219 42.2367 46.7886 42.47ZM14.3786 32.67C14.4719 32.7167 14.5186 32.7167 14.5186 32.67C14.5652 32.5767 14.5886 32.53 14.5886 32.53C14.6819 32.39 14.7286 32.25 14.7286 32.11C14.7286 31.9233 14.7519 31.76 14.7986 31.62C15.6386 29.52 16.7119 27.2333 18.0186 24.76C18.1119 24.5733 18.2052 24.5267 18.2986 24.62C18.4386 24.6667 18.5319 24.6433 18.5786 24.55C18.6719 24.4567 18.6952 24.34 18.6486 24.2C18.6486 24.06 18.6486 23.9433 18.6486 23.85C18.6019 23.7567 18.5319 23.6867 18.4386 23.64C18.3452 23.5933 18.2752 23.5233 18.2286 23.43C18.0419 22.9167 17.7852 22.59 17.4586 22.45C17.1786 22.2633 16.9686 21.9833 16.8286 21.61C16.6419 21.19 16.4552 20.8867 16.2686 20.7C16.1286 20.4667 15.9419 20.1867 15.7086 19.86L15.4986 22.24C15.4519 22.7067 15.3819 23.2433 15.2886 23.85C15.2419 24.4567 15.1252 25.0167 14.9386 25.53C14.8919 25.67 14.8686 25.88 14.8686 26.16V26.93C14.8686 27.0233 14.8452 27.14 14.7986 27.28C14.7986 27.42 14.7986 27.56 14.7986 27.7L14.6586 29.1C14.6119 29.5667 14.5419 30.0567 14.4486 30.57C14.3552 31.0367 14.3086 31.48 14.3086 31.9C14.3086 32.2733 14.3319 32.53 14.3786 32.67ZM55.8136 34.14C54.647 34.14 53.6203 33.8133 52.7336 33.16C51.847 32.5067 51.4036 31.3867 51.4036 29.8C51.4036 29.1933 51.4736 28.5867 51.6136 27.98C51.7536 27.3267 51.917 26.6967 52.1036 26.09C52.197 25.4833 52.337 24.9467 52.5236 24.48C52.5703 24.2933 52.5936 24.2 52.5936 24.2C52.6403 24.1533 52.757 24.0833 52.9436 23.99L53.5036 23.15V22.87C53.457 22.87 53.4336 22.87 53.4336 22.87C53.4336 22.8233 53.4336 22.8 53.4336 22.8C53.4336 22.66 53.5503 22.4967 53.7836 22.31C54.017 22.1233 54.1336 22.03 54.1336 22.03C54.1803 21.7967 54.2503 21.68 54.3436 21.68C54.437 21.68 54.5536 21.61 54.6936 21.47H55.4636V21.33C55.4636 21.0967 55.347 21.0033 55.1136 21.05C54.927 21.05 54.8336 21.0267 54.8336 20.98C54.8336 20.9333 54.9036 20.84 55.0436 20.7C55.2303 20.5133 55.347 20.3967 55.3936 20.35C55.5336 20.1633 55.6503 20 55.7436 19.86C55.837 19.6733 55.977 19.5333 56.1636 19.44C57.0036 18.4133 57.517 17.76 57.7036 17.48C57.937 17.2 58.1703 16.99 58.4036 16.85C58.497 16.85 58.567 16.8967 58.6136 16.99C58.707 17.0367 58.707 17.1067 58.6136 17.2C58.707 17.34 58.777 17.3633 58.8236 17.27C58.917 17.1767 58.9636 17.13 58.9636 17.13L59.2436 16.99C59.1503 16.8967 59.1036 16.78 59.1036 16.64C59.1036 16.4067 59.1503 16.22 59.2436 16.08C59.337 15.8933 59.5003 15.7067 59.7336 15.52C60.0136 15.3333 60.1536 15.2167 60.1536 15.17C60.4336 15.0767 60.6436 14.9833 60.7836 14.89C60.9703 14.7967 61.157 14.75 61.3436 14.75C61.6703 14.75 61.997 14.8667 62.3236 15.1C63.2103 15.5667 63.957 16.0333 64.5636 16.5C65.1703 16.9667 65.4736 17.62 65.4736 18.46C65.4736 19.3467 65.1003 20.1167 64.3536 20.77C63.6536 21.3767 62.7903 21.89 61.7636 22.31C60.737 22.73 59.7103 23.08 58.6836 23.36C57.7036 23.5933 56.9336 23.78 56.3736 23.92C56.047 23.9667 55.8836 24.1067 55.8836 24.34C55.9303 24.5267 55.907 24.7367 55.8136 24.97L55.3236 25.74L54.9036 26.72L54.5536 27.35C54.227 27.63 54.1103 27.84 54.2036 27.98C54.297 28.12 54.4603 28.0967 54.6936 27.91C54.7403 27.9567 54.7636 28.0267 54.7636 28.12C54.7636 28.3067 54.717 28.54 54.6236 28.82C54.5303 29.0533 54.4603 29.24 54.4136 29.38C54.367 29.5667 54.367 29.66 54.4136 29.66C54.507 29.6133 54.5536 29.7067 54.5536 29.94L54.6236 30.92C54.9036 31.8067 55.5336 32.32 56.5136 32.46C56.607 32.46 56.7003 32.4833 56.7936 32.53C56.9336 32.53 57.0503 32.53 57.1436 32.53C57.9836 32.53 58.427 32.46 58.4736 32.32C58.567 32.18 58.6836 32.0867 58.8236 32.04C59.2436 31.9467 59.5936 31.8533 59.8736 31.76C60.2003 31.6667 60.527 31.5267 60.8536 31.34C61.4136 31.1067 61.9503 30.8033 62.4636 30.43C62.977 30.0567 63.5136 29.6833 64.0736 29.31L64.7736 28.82C64.8203 28.7267 64.8203 28.6567 64.7736 28.61C64.727 28.5633 64.727 28.5167 64.7736 28.47C64.867 28.4233 64.937 28.4233 64.9836 28.47C65.077 28.47 65.147 28.4467 65.1936 28.4C65.287 28.3533 65.3803 28.2833 65.4736 28.19C65.567 28.05 65.6603 27.9333 65.7536 27.84C65.847 27.7467 65.8936 27.6533 65.8936 27.56C65.9403 27.4667 66.0103 27.3733 66.1036 27.28C66.477 26.9067 66.8503 26.51 67.2236 26.09C67.6436 25.67 67.9936 25.2967 68.2736 24.97C68.6003 24.5033 68.857 24.27 69.0436 24.27C69.137 24.27 69.1836 24.3167 69.1836 24.41C69.1836 24.6433 69.0203 24.9933 68.6936 25.46C67.9003 26.6267 66.9903 27.77 65.9636 28.89C64.937 29.9633 63.817 30.9433 62.6036 31.83C61.717 32.4367 60.667 32.9733 59.4536 33.44C58.2403 33.9067 57.027 34.14 55.8136 34.14ZM56.8636 22.87C57.5636 22.8233 58.4736 22.6367 59.5936 22.31C60.7136 21.9367 61.647 21.4467 62.3936 20.84C63.187 20.1867 63.5836 19.4633 63.5836 18.67C63.5836 17.9233 63.187 17.2 62.3936 16.5C61.7403 16.9667 61.017 17.6433 60.2236 18.53C59.477 19.37 58.8003 20.21 58.1936 21.05C57.587 21.8433 57.1436 22.45 56.8636 22.87ZM74.1312 34.21C72.4045 34.21 71.0979 33.9067 70.2112 33.3C69.3245 32.6933 68.7179 31.97 68.3912 31.13C68.0645 30.29 67.9712 29.3333 68.1112 28.26L68.2512 28.05C68.3445 27.91 68.4145 27.7233 68.4612 27.49C68.5079 27.2567 68.5545 27.1167 68.6012 27.07L69.1612 27.21C69.2545 27.2567 69.3245 27.1867 69.3712 27C69.4179 26.8133 69.3945 26.7433 69.3012 26.79C69.0212 26.8367 68.8812 26.8833 68.8812 26.93C68.8812 26.9767 68.8345 26.8833 68.7412 26.65L68.9512 26.51L68.8812 26.44C68.8812 26.3467 68.9279 26.3 69.0212 26.3L68.8812 26.09C68.8812 26.09 69.0679 26.1133 69.4412 26.16C69.8612 26.16 70.0245 26.1133 69.9312 26.02C69.9779 26.02 69.9545 25.9967 69.8612 25.95C69.7679 25.8567 69.7212 25.7867 69.7212 25.74C69.6745 25.7867 69.6512 25.7867 69.6512 25.74C69.6512 25.6467 69.4879 25.6467 69.1612 25.74C69.0212 25.7867 68.9512 25.7633 68.9512 25.67C68.9512 25.5767 68.9512 25.53 68.9512 25.53C69.0912 25.4833 69.2312 25.4367 69.3712 25.39C69.5112 25.2967 69.6045 25.1567 69.6512 24.97C69.6979 24.5033 69.7445 24.2467 69.7912 24.2C69.8379 24.1533 69.8845 24.0833 69.9312 23.99C69.9779 23.8967 70.0479 23.78 70.1412 23.64C70.2345 23.4533 70.3045 23.36 70.3512 23.36C70.3045 23.3133 70.2812 23.2433 70.2812 23.15C70.2812 22.9167 70.4445 22.8233 70.7712 22.87C71.1445 22.9167 71.2612 22.7767 71.1212 22.45C70.9812 22.2633 71.0512 22.17 71.3312 22.17L71.2612 22.1C71.4479 22.0067 71.5645 21.96 71.6112 21.96C71.7045 21.9133 71.6579 21.82 71.4712 21.68L71.7512 21.05C71.7979 20.9567 71.8912 20.8167 72.0312 20.63C72.2179 20.3967 72.4979 20.1633 72.8712 19.93C72.8712 19.93 72.8479 19.9533 72.8012 20C72.8012 20 72.8012 20.0233 72.8012 20.07H72.8712C73.0112 20.07 73.2679 19.93 73.6412 19.65C73.5945 19.6033 73.5012 19.58 73.3612 19.58C73.2679 19.5333 73.1979 19.4867 73.1512 19.44C73.1045 19.3 73.3379 18.9967 73.8512 18.53C74.3645 18.0633 74.9245 17.62 75.5312 17.2C76.1379 16.7333 76.5112 16.4533 76.6512 16.36C77.3512 15.9867 78.1212 15.6833 78.9612 15.45C79.8479 15.17 80.6179 15.1 81.2712 15.24C81.4112 15.2867 81.6212 15.4733 81.9012 15.8C82.2279 16.1267 82.4612 16.22 82.6012 16.08C83.0212 15.7067 83.5112 15.3333 84.0712 14.96C84.6312 14.5867 84.9579 14.4233 85.0512 14.47C85.2845 14.5167 85.5179 14.61 85.7512 14.75C85.9845 14.8433 86.1012 15.1233 86.1012 15.59C86.1012 15.9167 86.0779 16.1967 86.0312 16.43C85.9845 16.71 85.8679 16.9433 85.6812 17.13C85.4945 17.3167 85.3079 17.5267 85.1212 17.76C84.9345 18.04 84.5845 18.4833 84.0712 19.09C83.6045 19.65 83.2545 20 83.0212 20.14C82.8812 20.1867 82.7179 20.3267 82.5312 20.56C82.3912 20.7467 82.2045 20.9333 81.9712 21.12C81.7845 21.26 81.5512 21.3767 81.2712 21.47C81.0379 21.5167 80.8745 21.5633 80.7812 21.61C80.6879 21.6567 80.5245 21.68 80.2912 21.68C80.1045 21.6333 80.0579 21.54 80.1512 21.4C80.1979 21.3533 80.1979 21.3067 80.1512 21.26C80.1512 21.1667 80.1512 21.0967 80.1512 21.05C80.1979 20.9567 80.2679 20.8867 80.3612 20.84C80.4545 20.7933 80.5245 20.7233 80.5712 20.63C80.6179 20.5833 80.7345 20.42 80.9212 20.14C81.1545 19.86 81.2712 19.6967 81.2712 19.65C81.2245 19.6033 81.2245 19.5567 81.2712 19.51C81.3179 19.4167 81.3412 19.3467 81.3412 19.3C81.3879 19.2533 81.4112 19.1833 81.4112 19.09C81.4112 18.9967 81.4579 18.95 81.5512 18.95C81.7379 18.9033 81.8312 18.8333 81.8312 18.74C81.8312 18.3667 81.8545 18.0167 81.9012 17.69C81.9945 17.3633 81.9712 17.0833 81.8312 16.85C81.6445 16.4767 81.2945 16.29 80.7812 16.29C80.0812 16.29 79.2645 16.5933 78.3312 17.2C77.3979 17.76 76.7679 18.2267 76.4412 18.6C74.9479 20.28 73.7345 22.17 72.8012 24.27C71.8679 26.37 71.4945 28.2367 71.6812 29.87C71.7745 30.6633 72.1012 31.3167 72.6612 31.83C73.2212 32.3433 73.8512 32.6 74.5512 32.6H75.7412C75.8812 32.6 76.0212 32.6 76.1612 32.6C76.3479 32.5533 76.5345 32.5067 76.7212 32.46C77.0012 32.3667 77.2112 32.32 77.3512 32.32C77.5845 32.0867 77.7245 32.0867 77.7712 32.32C78.1445 32.1333 78.3079 32.0633 78.2612 32.11C78.2145 32.1567 78.2845 32.1567 78.4712 32.11C79.4045 31.8767 80.3145 31.48 81.2012 30.92C82.0879 30.36 82.9045 29.8 83.6512 29.24C83.7912 29.1467 84.0245 29.0067 84.3512 28.82C84.6779 28.6333 84.9112 28.4933 85.0512 28.4C85.1445 28.26 85.2145 28.1433 85.2612 28.05C85.3545 27.91 85.4712 27.8167 85.6112 27.77C85.7045 27.63 85.8212 27.49 85.9612 27.35C86.1012 27.1633 86.1945 27.0467 86.2412 27C86.4745 26.9067 86.5445 26.8367 86.4512 26.79C86.3579 26.6967 86.4745 26.58 86.8012 26.44C86.8945 26.3933 86.9879 26.37 87.0812 26.37C87.1745 26.37 87.2212 26.4167 87.2212 26.51C87.2212 26.6033 87.0812 26.86 86.8012 27.28C86.6145 27.6067 86.2645 28.0267 85.7512 28.54L85.0512 29.24L84.2112 29.66C84.1179 29.7533 84.0712 29.8467 84.0712 29.94C84.0712 29.9867 84.0245 30.0567 83.9312 30.15C82.6245 31.3167 81.1312 32.2967 79.4512 33.09C77.8179 33.8367 76.0445 34.21 74.1312 34.21ZM92.1141 34.63C91.0874 34.63 90.1774 34.35 89.3841 33.79C88.6374 33.1833 88.2641 32.1567 88.2641 30.71C88.2641 30.1967 88.3574 29.4733 88.5441 28.54C88.7308 27.6067 89.0341 26.6267 89.4541 25.6C89.6874 25.04 89.9441 24.5033 90.2241 23.99C90.5508 23.4767 90.8541 22.9867 91.1341 22.52C91.1808 22.4733 91.3208 22.52 91.5541 22.66C91.8341 22.8 91.9974 22.8467 92.0441 22.8C92.0908 22.7067 92.0208 22.6133 91.8341 22.52C91.6941 22.38 91.6474 22.2867 91.6941 22.24C91.7874 22.1467 91.8574 22.1 91.9041 22.1C91.9974 22.0533 92.0674 21.9833 92.1141 21.89C92.1608 21.7967 92.1841 21.7033 92.1841 21.61C92.1841 21.47 92.1141 21.3533 91.9741 21.26C91.8808 21.1667 91.9274 21.0267 92.1141 20.84C92.3474 20.5133 92.6041 20.21 92.8841 19.93C93.2108 19.6033 93.4908 19.3233 93.7241 19.09C93.8174 18.9967 93.9341 18.8567 94.0741 18.67C94.2141 18.4367 94.3074 18.2967 94.3541 18.25L94.4941 18.11C94.5408 18.0633 94.5874 18.0167 94.6341 17.97C94.6341 17.9233 94.6341 17.9 94.6341 17.9C94.6808 17.9 94.7041 17.8767 94.7041 17.83C94.7041 17.69 94.5641 17.55 94.2841 17.41C94.0041 17.27 93.8641 17.1767 93.8641 17.13C93.8641 17.0833 93.8408 17.0367 93.7941 16.99C93.7474 16.9433 93.7008 16.8733 93.6541 16.78C93.7008 16.78 93.7474 16.7333 93.7941 16.64C93.8874 16.5 93.9574 16.43 94.0041 16.43C94.0508 16.43 94.1441 16.4767 94.2841 16.57C94.4241 16.6167 94.5174 16.64 94.5641 16.64C94.6108 16.64 94.6341 16.6167 94.6341 16.57C94.6808 16.5233 94.7274 16.5 94.7741 16.5C94.8674 16.5 95.0774 16.57 95.4041 16.71C95.7308 16.8033 95.9174 16.85 95.9641 16.85C96.0108 16.85 96.1508 16.7333 96.3841 16.5C96.6174 16.2667 96.7574 16.1267 96.8041 16.08C96.8974 15.9867 96.9674 15.8933 97.0141 15.8C97.0608 15.66 97.1774 15.4967 97.3641 15.31H97.4341C97.4808 15.2633 97.5041 15.2167 97.5041 15.17C97.5041 15.1233 97.5041 15.1 97.5041 15.1C97.5974 15.0067 97.6674 14.9367 97.7141 14.89C97.8074 14.7967 97.8774 14.7267 97.9241 14.68C97.9708 14.6333 97.9941 14.61 97.9941 14.61C98.0408 14.61 98.0641 14.61 98.0641 14.61C98.1108 14.5167 98.1574 14.4467 98.2041 14.4C98.2974 14.3533 98.3674 14.3067 98.4141 14.26L98.5541 13.98C98.6474 13.8867 98.9741 13.6767 99.5341 13.35C100.094 13.0233 100.514 12.86 100.794 12.86H101.144C101.144 12.86 101.144 12.8833 101.144 12.93C101.144 12.93 101.167 12.93 101.214 12.93C101.261 12.93 101.307 12.93 101.354 12.93C101.401 12.8833 101.447 12.86 101.494 12.86C101.494 12.86 101.564 12.93 101.704 13.07C101.751 13.1167 101.797 13.14 101.844 13.14C101.891 13.0933 101.937 13.07 101.984 13.07C102.031 13.1167 102.054 13.1633 102.054 13.21C102.054 13.2567 102.077 13.28 102.124 13.28C102.217 13.28 102.241 13.28 102.194 13.28C102.194 13.2333 102.217 13.21 102.264 13.21C102.311 13.21 102.334 13.2567 102.334 13.35C102.334 13.4433 102.357 13.5367 102.404 13.63C102.357 13.77 102.311 13.9333 102.264 14.12C102.264 14.26 102.241 14.3767 102.194 14.47C101.774 15.03 101.447 15.31 101.214 15.31C101.214 15.3567 101.144 15.45 101.004 15.59C100.864 15.59 100.701 15.6367 100.514 15.73C100.327 15.8233 100.141 15.9167 99.9541 16.01V16.22C99.9541 16.4067 99.8841 16.5 99.7441 16.5C99.6508 16.4533 99.5574 16.5233 99.4641 16.71V16.78C99.5574 16.92 99.7208 16.99 99.9541 16.99L100.444 17.06C100.537 17.06 100.584 17.0367 100.584 16.99C100.631 16.9433 100.677 16.92 100.724 16.92C100.771 16.92 100.794 16.9433 100.794 16.99C100.794 16.99 100.817 16.99 100.864 16.99C100.957 16.99 101.027 16.9667 101.074 16.92C101.121 16.8733 101.167 16.85 101.214 16.85L101.844 16.92C101.704 16.6867 101.634 16.5 101.634 16.36C101.634 16.1267 101.844 15.9867 102.264 15.94C102.917 15.94 103.477 16.1733 103.944 16.64C104.037 16.5933 104.154 16.5933 104.294 16.64C104.434 16.6867 104.574 16.6867 104.714 16.64L105.064 16.43L105.134 16.5C105.321 16.4067 105.437 16.36 105.484 16.36C105.577 16.36 105.601 16.3833 105.554 16.43C105.554 16.43 105.577 16.43 105.624 16.43C105.624 16.43 105.671 16.3833 105.764 16.29C105.811 16.29 105.857 16.3133 105.904 16.36C105.997 16.36 106.067 16.3367 106.114 16.29L106.324 16.08H107.164L107.234 16.01C107.327 15.9633 107.444 15.9167 107.584 15.87C107.771 15.7767 107.934 15.73 108.074 15.73C108.074 15.6833 108.121 15.66 108.214 15.66C108.307 15.6133 108.377 15.59 108.424 15.59H108.564C108.797 15.59 108.914 15.66 108.914 15.8C108.914 15.94 108.844 16.0567 108.704 16.15C108.657 16.1967 108.587 16.22 108.494 16.22C108.401 16.1733 108.307 16.1733 108.214 16.22C108.027 16.4067 107.887 16.5 107.794 16.5C107.747 16.5 107.724 16.5 107.724 16.5C107.724 16.4533 107.701 16.43 107.654 16.43C107.607 16.43 107.514 16.5 107.374 16.64L106.884 16.71H106.814C106.721 16.71 106.674 16.7567 106.674 16.85C106.487 16.85 106.301 16.8733 106.114 16.92C105.927 16.92 105.741 16.9433 105.554 16.99L105.484 17.06C105.437 17.06 105.391 17.0833 105.344 17.13C105.297 17.13 105.227 17.13 105.134 17.13C105.041 17.1767 104.784 17.2 104.364 17.2C104.644 17.5733 104.831 17.9233 104.924 18.25C105.017 18.4833 105.087 18.8567 105.134 19.37C105.227 19.8367 105.251 20.1867 105.204 20.42C105.204 20.56 105.157 20.6067 105.064 20.56C104.971 20.4667 104.924 20.4667 104.924 20.56C104.924 20.7 104.971 20.7933 105.064 20.84C105.204 20.84 105.274 20.9567 105.274 21.19C105.274 21.33 105.251 21.5167 105.204 21.75C105.157 21.9367 105.111 22.1467 105.064 22.38C105.017 22.66 104.947 22.9633 104.854 23.29C104.807 23.57 104.691 23.85 104.504 24.13L104.294 24.48V24.9C104.294 25.2733 104.177 25.53 103.944 25.67C103.757 25.81 103.617 25.9733 103.524 26.16C103.431 26.44 103.361 26.6267 103.314 26.72C103.314 26.8133 103.221 27 103.034 27.28C102.427 28.2133 101.704 29.1 100.864 29.94C100.024 30.78 99.2074 31.55 98.4141 32.25C97.7141 32.8567 96.7574 33.4167 95.5441 33.93C94.3774 34.3967 93.2341 34.63 92.1141 34.63ZM92.8141 33.37C92.9541 33.37 93.2341 33.3467 93.6541 33.3C94.0741 33.2067 94.5174 32.9967 94.9841 32.67C95.0774 32.6233 95.1708 32.6467 95.2641 32.74C95.3574 32.8333 95.4508 32.8567 95.5441 32.81C95.7774 32.7167 95.8708 32.6467 95.8241 32.6C95.7774 32.5533 95.8474 32.5067 96.0341 32.46H96.1041C96.3841 32.46 96.5008 32.4367 96.4541 32.39C96.4541 32.2967 96.4774 32.18 96.5241 32.04C96.5241 31.9 96.5941 31.7833 96.7341 31.69C96.8741 31.5967 96.9908 31.5267 97.0841 31.48C97.5974 31.06 98.2274 30.36 98.9741 29.38C99.7208 28.3533 100.467 27.3267 101.214 26.3C101.261 26.2067 101.331 26.1833 101.424 26.23C101.517 26.2767 101.587 26.2767 101.634 26.23C101.681 26.1833 101.704 26.0433 101.704 25.81C101.704 25.67 101.774 25.46 101.914 25.18C102.054 24.8533 102.194 24.5967 102.334 24.41C102.381 24.27 102.474 24.0133 102.614 23.64C102.754 23.22 102.871 22.8467 102.964 22.52C103.104 22.1467 103.127 21.96 103.034 21.96C102.941 21.9133 102.894 21.8667 102.894 21.82C102.894 21.7267 103.034 21.6333 103.314 21.54C103.594 21.4467 103.571 21.3767 103.244 21.33C103.151 21.2833 103.174 21.19 103.314 21.05C103.454 20.91 103.384 20.8167 103.104 20.77C102.871 20.7233 102.777 20.6533 102.824 20.56C102.917 20.4667 102.987 20.3967 103.034 20.35C103.174 20.21 103.244 20.07 103.244 19.93C103.244 19.51 103.127 19.09 102.894 18.67C102.707 18.25 102.497 17.8767 102.264 17.55C101.984 17.7367 101.844 17.83 101.844 17.83C101.797 17.83 101.774 17.83 101.774 17.83C101.774 17.7833 101.727 17.76 101.634 17.76C101.587 17.76 101.564 17.76 101.564 17.76C101.564 17.7133 101.541 17.69 101.494 17.69C101.447 17.69 101.401 17.7133 101.354 17.76C101.307 17.8067 101.284 17.83 101.284 17.83C101.237 17.8767 101.144 17.9 101.004 17.9C100.911 17.9 100.841 17.9 100.794 17.9C100.747 17.9 100.701 17.8767 100.654 17.83C100.654 17.7833 100.631 17.76 100.584 17.76C100.537 17.76 100.467 17.8067 100.374 17.9C100.327 17.9933 100.257 18.04 100.164 18.04C100.117 18.04 100.094 18.0167 100.094 17.97C100.094 17.9233 100.047 17.9 99.9541 17.9C99.9074 17.9 99.8608 17.9233 99.8141 17.97C99.8141 18.0167 99.7908 18.04 99.7441 18.04C99.6974 18.04 99.6041 17.97 99.4641 17.83H99.3941C99.3941 18.11 99.3241 18.25 99.1841 18.25C99.1374 18.25 99.0674 18.2033 98.9741 18.11C98.4608 18.4367 97.5974 19.2067 96.3841 20.42C95.1708 21.5867 94.0974 22.94 93.1641 24.48C92.9774 24.8533 92.7441 25.2967 92.4641 25.81C92.2308 26.3233 92.0208 26.9067 91.8341 27.56C91.7874 27.84 91.6474 28.05 91.4141 28.19C91.2274 28.33 91.0874 28.4933 90.9941 28.68C90.9474 28.8667 90.9708 28.9833 91.0641 29.03C91.1574 29.0767 91.2274 29.1467 91.2741 29.24C91.2741 29.4267 91.2274 29.6833 91.1341 30.01C91.0874 30.3367 91.0641 30.64 91.0641 30.92C91.0641 31.8067 91.2274 32.4367 91.5541 32.81C91.9274 33.1833 92.3474 33.37 92.8141 33.37ZM107.538 34.21C107.258 34.21 107.118 34.0467 107.118 33.72C107.118 33.4867 107.188 33.2067 107.328 32.88C107.701 32.0867 108.145 30.9667 108.658 29.52C109.171 28.0733 109.801 26.8367 110.548 25.81L113.278 19.72C113.278 19.72 113.231 19.6967 113.138 19.65C113.045 19.5567 112.998 19.4633 112.998 19.37C112.718 19.1833 112.415 18.9267 112.088 18.6C111.808 18.2267 111.785 17.8533 112.018 17.48C112.111 17.3867 112.181 17.34 112.228 17.34C112.275 17.34 112.298 17.34 112.298 17.34V17.2C112.298 17.0133 112.368 16.8967 112.508 16.85C112.695 16.8033 112.811 16.7333 112.858 16.64C112.951 15.9867 113.488 15.4967 114.468 15.17C115.495 14.8433 116.405 14.68 117.198 14.68C117.991 14.68 118.388 14.7967 118.388 15.03C118.388 15.17 118.248 15.3333 117.968 15.52C117.875 15.6133 117.641 15.8233 117.268 16.15C116.941 16.4767 116.638 16.8733 116.358 17.34L115.868 18.18L115.378 18.81C114.631 20.1633 114.025 21.3067 113.558 22.24C113.091 23.1733 112.531 24.3633 111.878 25.81C111.738 26.09 111.668 26.3233 111.668 26.51C111.668 26.7433 111.761 26.86 111.948 26.86C112.041 26.86 112.135 26.8367 112.228 26.79C112.368 26.6967 112.508 26.6267 112.648 26.58C113.021 26.3467 113.325 26.1367 113.558 25.95C113.838 25.7167 114.141 25.4833 114.468 25.25C114.608 25.11 114.725 25.11 114.818 25.25C114.911 25.3433 114.911 25.4833 114.818 25.67C114.631 26.0433 114.491 26.2767 114.398 26.37C114.351 26.4167 114.281 26.4633 114.188 26.51C114.095 26.5567 113.885 26.7667 113.558 27.14L113.278 27.7C113.185 27.7933 113.068 27.98 112.928 28.26C112.835 28.4933 112.788 28.6333 112.788 28.68C112.788 28.7733 112.741 28.82 112.648 28.82C112.555 28.7733 112.415 28.8433 112.228 29.03C112.181 29.0767 112.158 29.17 112.158 29.31C112.205 29.45 112.181 29.5667 112.088 29.66C112.041 29.8 111.971 29.9167 111.878 30.01C111.785 30.0567 111.738 30.1033 111.738 30.15C111.691 30.3367 111.598 30.4533 111.458 30.5C111.365 30.5 111.271 30.5467 111.178 30.64C111.131 30.64 111.108 30.6867 111.108 30.78C111.108 31.1533 111.061 31.3167 110.968 31.27C110.875 31.2233 110.781 31.27 110.688 31.41C110.595 31.5967 110.478 31.69 110.338 31.69C110.058 31.7833 109.941 31.8533 109.988 31.9C110.035 31.9467 110.105 31.9933 110.198 32.04C110.291 32.04 110.221 32.11 109.988 32.25C109.848 32.2967 109.731 32.4367 109.638 32.67C109.545 32.8567 109.451 32.9967 109.358 33.09C109.265 33.1833 109.148 33.2533 109.008 33.3C108.868 33.3467 108.751 33.44 108.658 33.58C108.238 34 107.865 34.21 107.538 34.21ZM128.398 33.65C128.211 33.65 128.048 33.65 127.908 33.65C127.768 33.6033 127.628 33.5567 127.488 33.51C127.021 33.4167 126.601 33.2767 126.228 33.09C125.901 32.9033 125.621 32.5533 125.388 32.04C125.341 31.8067 125.225 31.5033 125.038 31.13C124.898 30.7567 124.805 30.4067 124.758 30.08C124.711 29.8467 124.688 29.5667 124.688 29.24C124.641 29.0067 124.618 28.7033 124.618 28.33C124.525 27.8633 124.478 27.4433 124.478 27.07C124.525 26.6967 124.548 26.2533 124.548 25.74C124.548 25.2267 124.571 24.8533 124.618 24.62C124.711 24.2 124.758 23.99 124.758 23.99C124.758 23.9433 124.758 23.71 124.758 23.29C124.805 22.73 124.828 22.1467 124.828 21.54C124.828 20.9333 124.851 20.4433 124.898 20.07C125.038 18.67 124.758 17.97 124.058 17.97C123.778 17.97 123.405 18.0867 122.938 18.32C122.891 18.46 122.798 18.5533 122.658 18.6C122.565 18.6 122.425 18.6467 122.238 18.74L121.888 18.95C121.888 18.9967 121.841 19.02 121.748 19.02C121.655 18.9733 121.608 18.9967 121.608 19.09C121.655 19.2767 121.631 19.3933 121.538 19.44C121.491 19.4867 121.421 19.4633 121.328 19.37L120.558 19.93C120.558 19.9767 120.488 20.07 120.348 20.21L120.278 20.28C120.091 20.4667 119.928 20.56 119.788 20.56L119.578 20.77C119.578 20.8167 119.531 20.91 119.438 21.05C119.391 21.1433 119.275 21.1667 119.088 21.12L118.738 21.47C118.551 21.75 118.388 21.9133 118.248 21.96C118.155 22.0067 118.038 22.0533 117.898 22.1L117.338 22.8L117.058 22.87C117.058 23.0567 116.848 23.3367 116.428 23.71C116.055 24.0833 115.798 24.34 115.658 24.48C115.518 24.62 115.378 24.69 115.238 24.69C115.145 24.69 115.098 24.6433 115.098 24.55C115.098 24.5033 115.215 24.3167 115.448 23.99C115.635 23.8033 115.915 23.4533 116.288 22.94C116.708 22.4267 116.941 22.1933 116.988 22.24C117.221 22.0067 117.385 21.7733 117.478 21.54C117.571 21.26 117.735 21.0267 117.968 20.84C117.968 20.8867 117.968 20.9333 117.968 20.98C118.015 20.98 118.038 20.98 118.038 20.98C118.131 20.98 118.248 20.8633 118.388 20.63C118.528 20.35 118.621 20.2333 118.668 20.28L119.858 19.23C119.858 19.1833 119.975 19.09 120.208 18.95C120.395 18.8567 120.511 18.81 120.558 18.81C120.605 18.81 120.721 18.67 120.908 18.39L121.398 18.04C121.445 17.9467 121.491 17.97 121.538 18.11C121.631 18.2033 121.701 18.2267 121.748 18.18L121.958 17.69C122.051 17.55 122.191 17.4333 122.378 17.34C122.611 17.2 122.845 17.06 123.078 16.92C123.638 16.36 124.058 16.08 124.338 16.08H124.618C125.225 15.8467 125.785 15.73 126.298 15.73C127.045 15.73 127.628 16.01 128.048 16.57C128.141 16.71 128.235 16.9667 128.328 17.34C128.421 17.3867 128.445 17.4567 128.398 17.55C128.398 17.5967 128.421 17.6667 128.468 17.76C128.515 17.8533 128.608 17.97 128.748 18.11C128.888 18.2033 128.958 18.32 128.958 18.46V18.6C128.958 18.7867 128.841 18.95 128.608 19.09C128.841 19.2767 128.935 19.3933 128.888 19.44C128.888 19.44 128.865 19.51 128.818 19.65L128.678 20.63C128.631 20.9567 128.561 21.2133 128.468 21.4C128.375 21.54 128.281 21.7967 128.188 22.17C128.375 22.45 128.375 22.6367 128.188 22.73H128.048L127.978 23.01C127.978 23.1033 128.025 23.1967 128.118 23.29L127.908 23.71C127.955 23.6633 127.978 23.6633 127.978 23.71C128.025 23.71 128.048 23.71 128.048 23.71C128.001 23.8033 127.931 23.99 127.838 24.27C127.745 24.5033 127.675 24.69 127.628 24.83C127.581 25.0633 127.488 25.18 127.348 25.18C127.208 25.18 127.161 25.2967 127.208 25.53C127.255 25.5767 127.278 25.74 127.278 26.02C127.325 26.2533 127.301 26.37 127.208 26.37L127.068 27.21V27.42C127.068 27.6533 127.021 27.8867 126.928 28.12C126.881 28.3533 126.835 28.5867 126.788 28.82C126.741 29.0533 126.695 29.31 126.648 29.59C126.648 29.8233 126.648 30.0567 126.648 30.29C126.648 30.4767 126.648 30.6867 126.648 30.92C126.695 31.1067 126.741 31.2933 126.788 31.48C126.788 31.5267 126.858 31.6667 126.998 31.9C127.138 32.1333 127.208 32.2733 127.208 32.32L127.418 32.53C127.511 32.5767 127.651 32.5767 127.838 32.53C128.071 32.4833 128.235 32.5067 128.328 32.6C128.748 32.6467 129.285 32.4367 129.938 31.97C130.638 31.4567 131.268 30.8967 131.828 30.29C131.968 30.15 132.108 30.08 132.248 30.08C132.341 30.08 132.411 30.15 132.458 30.29C132.505 30.43 132.458 30.6167 132.318 30.85C131.571 31.9233 130.871 32.67 130.218 33.09C129.565 33.4633 128.958 33.65 128.398 33.65Z" fill="white"/>
</svg>
