<svg width="56" height="40" viewBox="0 0 56 40" fill="none" xmlns="http://www.w3.org/2000/svg">
<path d="M25.5 40H14.25C10.4583 40 7.21834 38.6875 4.53 36.0625C1.84167 33.4375 0.498335 30.2292 0.500002 26.4375C0.500002 23.1875 1.47917 20.2917 3.4375 17.75C5.39584 15.2083 7.95834 13.5833 11.125 12.875C12.1667 9.04167 14.25 5.9375 17.375 3.5625C20.5 1.1875 24.0417 0 28 0C32.875 0 37.0108 1.69833 40.4075 5.095C43.8042 8.49167 45.5017 12.6267 45.5 17.5C48.375 17.8333 50.7608 19.0733 52.6575 21.22C54.5542 23.3667 55.5017 25.8767 55.5 28.75C55.5 31.875 54.4058 34.5317 52.2175 36.72C50.0292 38.9083 47.3733 40.0017 44.25 40H30.5V22.125L34.5 26L38 22.5L28 12.5L18 22.5L21.5 26L25.5 22.125V40Z" fill="#737FED"/>
</svg>
